<svg width="330" height="180" viewBox="0 0 330 180" fill="none" xmlns="http://www.w3.org/2000/svg">
<g clip-path="url(#clip0_410_40)">
<path d="M0 20C0 8.9543 8.95431 0 20 0L310 0C321.046 0 330 8.95431 330 20L330 180L0 180L0 20Z" fill="#5493CE"/>
<path fill-rule="evenodd" clip-rule="evenodd" d="M166.5 134.713C163.935 184.916 122.703 224.909 72 225.493V34C122.703 34.5845 163.935 74.5767 166.5 124.78C169.031 75.2385 209.217 35.6407 259 34.0438V225.45C209.217 223.853 169.031 184.255 166.5 134.713Z" fill="#94D384"/>
</g>
<defs>
<clipPath id="clip0_410_40">
<path d="M0 20C0 8.9543 8.95431 0 20 0L310 0C321.046 0 330 8.95431 330 20L330 180L0 180L0 20Z" fill="white"/>
</clipPath>
</defs>
</svg>
