<svg width="330" height="180" viewBox="0 0 330 180" fill="none" xmlns="http://www.w3.org/2000/svg">
<g clip-path="url(#clip0_410_35)">
<path d="M0 20C0 8.9543 8.95431 0 20 0L310 0C321.046 0 330 8.95431 330 20L330 180L0 180L0 20Z" fill="#F7C055"/>
<path fill-rule="evenodd" clip-rule="evenodd" d="M165.015 9C189.486 9 209.323 28.8363 209.323 53.3057C209.323 77.775 189.486 97.6111 165.015 97.6111C140.544 97.6111 120.707 77.775 120.707 53.3057C120.707 28.8363 140.544 9 165.015 9ZM90.9927 236.535C71.1953 222.153 66.8066 194.445 81.1902 174.649C95.5738 154.853 123.283 150.464 143.08 164.847C162.878 179.23 167.266 206.937 152.883 226.734C138.499 246.53 110.79 250.918 90.9927 236.535ZM248.983 174.649C263.367 194.445 258.979 222.153 239.181 236.535C219.384 250.918 191.674 246.53 177.291 226.734C162.907 206.937 167.296 179.23 187.093 164.847C206.891 150.464 234.6 154.853 248.983 174.649ZM45.1806 95.8435C52.7425 72.5721 77.7392 59.8363 101.012 67.3978C124.286 74.9592 137.022 99.9548 129.46 123.226C121.898 146.498 96.9015 159.233 73.6283 151.672C50.3551 144.11 37.6187 119.116 45.1806 95.8435ZM228.988 67.3978C252.261 59.8363 277.258 72.5721 284.819 95.8435C292.381 119.116 279.645 144.11 256.372 151.672C233.098 159.233 208.102 146.498 200.54 123.226C192.978 99.9548 205.715 74.9592 228.988 67.3978Z" fill="#555680"/>
</g>
<defs>
<clipPath id="clip0_410_35">
<path d="M0 20C0 8.9543 8.95431 0 20 0L310 0C321.046 0 330 8.95431 330 20L330 180L0 180L0 20Z" fill="white"/>
</clipPath>
</defs>
</svg>
