<svg width="330" height="180" viewBox="0 0 330 180" fill="none" xmlns="http://www.w3.org/2000/svg">
<g clip-path="url(#clip0_410_52)">
<path d="M0 20C0 8.9543 8.95431 0 20 0L310 0C321.046 0 330 8.95431 330 20L330 180L0 180L0 20Z" fill="#555680"/>
<path d="M6.03664 102.19C6.03664 98.8409 3.33387 96.1255 0 96.1255V53C27.0418 53 48.9634 75.0231 48.9634 102.19V191.81C48.9634 195.159 51.6661 197.875 55 197.875C58.334 197.875 61.0366 195.159 61.0366 191.81V102.19C61.0366 75.0231 82.9583 53 110 53C137.042 53 158.963 75.0231 158.963 102.19V191.81C158.963 195.159 161.667 197.875 165 197.875C168.333 197.875 171.037 195.159 171.037 191.81V102.19C171.037 75.0231 192.958 53 220 53C247.042 53 268.964 75.0231 268.964 102.19V191.81C268.964 195.159 271.666 197.875 275 197.875C278.334 197.875 281.037 195.159 281.037 191.81V102.19C281.037 75.0231 302.959 53 330 53V96.1255C326.667 96.1255 323.963 98.8409 323.963 102.19V191.81C323.963 218.977 302.042 241 275 241C247.958 241 226.036 218.977 226.036 191.81V102.19C226.036 98.8409 223.334 96.1255 220 96.1255C216.666 96.1255 213.963 98.8409 213.963 102.19V191.81C213.963 218.977 192.041 241 165 241C137.959 241 116.037 218.977 116.037 191.81V102.19C116.037 98.8409 113.334 96.1255 110 96.1255C106.666 96.1255 103.964 98.8409 103.964 102.19V191.81C103.964 218.977 82.0417 241 55 241C27.9582 241 6.03664 218.977 6.03664 191.81V102.19Z" fill="#F2C94C"/>
</g>
<defs>
<clipPath id="clip0_410_52">
<path d="M0 20C0 8.9543 8.95431 0 20 0L310 0C321.046 0 330 8.95431 330 20L330 180L0 180L0 20Z" fill="white"/>
</clipPath>
</defs>
</svg>
